<?xml version="1.0" standalone="no"?><!DOCTYPE svg PUBLIC "-//W3C//DTD SVG 1.1//EN" "http://www.w3.org/Graphics/SVG/1.1/DTD/svg11.dtd"><svg t="1621647951439" class="icon" viewBox="0 0 1024 1024" version="1.1" xmlns="http://www.w3.org/2000/svg" p-id="2344" xmlns:xlink="http://www.w3.org/1999/xlink" width="200" height="200"><defs><style type="text/css"></style></defs><path d="M302.7968 352.1536c-21.6064-21.7088-55.5008-21.7088-77.1072 0-21.7088 21.7088-21.7088 55.5008 0 77.2096l246.0672 241.2544c1.3312 1.3312 1.3312 2.6624 2.6624 3.9936 10.8544 9.4208 25.8048 14.848 39.2192 14.848 13.6192 0 28.4672-5.4272 39.2192-16.2816 1.3312-1.3312 2.7648-2.6624 2.7648-3.9936l242.8928-239.9232c21.6064-21.7088 21.6064-55.5008-0.1024-77.2096-21.6064-21.7088-55.5008-21.7088-77.2096 0L513.6384 558.1824 302.7968 352.1536z m210.8416 206.0288" p-id="2345"></path></svg>