<?xml version="1.0" standalone="no"?><!DOCTYPE svg PUBLIC "-//W3C//DTD SVG 1.1//EN" "http://www.w3.org/Graphics/SVG/1.1/DTD/svg11.dtd"><svg t="1622255245890" class="icon" viewBox="0 0 1024 1024" version="1.1" xmlns="http://www.w3.org/2000/svg" p-id="3685" xmlns:xlink="http://www.w3.org/1999/xlink" width="200" height="200"><defs><style type="text/css"></style></defs><path d="M807.588201 986.223382l-295.053841-294.925863-295.629743 295.437776a126.698461 126.698461 0 0 1-179.425497 0 126.570483 126.570483 0 0 1 0-179.297519L333.108863 512 37.415131 216.562224a126.570483 126.570483 0 0 1 0-179.297519 126.698461 126.698461 0 0 1 179.361508 0l295.693732 295.437776 294.989852-294.925863A126.698461 126.698461 0 1 1 987.013699 217.010148l-295.053841 295.053841 294.989852 294.925863a126.570483 126.570483 0 0 1 0 179.23353 126.954418 126.954418 0 0 1-179.29752 0z" p-id="3686"></path></svg>