<?xml version="1.0" standalone="no"?><!DOCTYPE svg PUBLIC "-//W3C//DTD SVG 1.1//EN" "http://www.w3.org/Graphics/SVG/1.1/DTD/svg11.dtd"><svg t="1622530820039" class="icon" viewBox="0 0 1024 1024" version="1.1" xmlns="http://www.w3.org/2000/svg" p-id="2457" xmlns:xlink="http://www.w3.org/1999/xlink" width="200" height="200"><defs><style type="text/css"></style></defs><path d="M1024.15 512.8c-1.6-68.8-16-137.6-44-200.8-27.2-63.2-67.2-120-116.8-167.2-48.8-47.2-107.2-84.8-170.4-108.8-63.2-24.8-130.4-36.8-197.6-35.2-67.2 1.6-133.6 16-194.4 42.4-60.8 26.4-116 65.6-161.6 112.8s-81.6 104-105.6 164.8c-24 60.8-35.2 126.4-33.6 191.2 1.6 64.8 15.2 128.8 41.6 188 25.6 59.2 63.2 112 109.6 156.8 46.4 44 100.8 79.2 159.2 101.6 59.2 23.2 122.4 33.6 184.8 32.8 62.4-1.6 124.8-15.2 181.6-40s108.8-61.6 151.2-105.6c42.4-44.8 76-97.6 98.4-154.4 13.6-34.4 22.4-70.4 27.2-107.2h4c36.8 0 66.4-29.6 66.4-66.4v-4.8z m-104.8 175.2c-24 55.2-59.2 104.8-102.4 145.6s-93.6 73.6-148.8 94.4c-55.2 21.6-113.6 31.2-172 30.4-58.4-1.6-116-14.4-168.8-37.6-52.8-23.2-100.8-57.6-140-98.4-39.2-41.6-70.4-90.4-91.2-143.2-20.8-52.8-30.4-109.6-28.8-165.6 1.6-56 13.6-112 36-162.4 22.4-51.2 55.2-96.8 95.2-135.2s87.2-68 138.4-87.2c51.2-20 105.6-28.8 159.2-27.2 54.4 1.6 107.2 13.6 156.8 35.2 48.8 21.6 92.8 52.8 129.6 92 36.8 38.4 65.6 84 84 132.8 19.2 48.8 28 100.8 26.4 153.6v5.6c0 34.4 25.6 62.4 59.2 65.6-8 32.8-18.4 68-32.8 101.6z" p-id="2458"></path></svg>