<?xml version="1.0" standalone="no"?><!DOCTYPE svg PUBLIC "-//W3C//DTD SVG 1.1//EN" "http://www.w3.org/Graphics/SVG/1.1/DTD/svg11.dtd"><svg t="1621330558665" class="icon" viewBox="0 0 1024 1024" version="1.1" xmlns="http://www.w3.org/2000/svg" p-id="3193" xmlns:xlink="http://www.w3.org/1999/xlink" width="200" height="200"><defs><style type="text/css"></style></defs><path d="M230.75000027 265.90624973m-52.734375 0a52.734375 52.734375 0 1 0 105.46875 0 52.734375 52.734375 0 1 0-105.46875 0Z" p-id="3194"></path><path d="M230.75000027 512m-52.734375 0a52.734375 52.734375 0 1 0 105.46875 0 52.734375 52.734375 0 1 0-105.46875 0Z" p-id="3195"></path><path d="M230.75000027 758.09375027m-52.734375 0a52.734375 52.734375 0 1 0 105.46875 0 52.734375 52.734375 0 1 0-105.46875 0Z" p-id="3196"></path><path d="M828.40625 731.72656277H388.95312527c-14.06250027 0-26.3671875 12.30468723-26.3671875 26.3671875s12.30468723 26.3671875 26.3671875 26.3671875h439.45312473c14.06250027 0 26.3671875-12.30468723 26.3671875-26.3671875s-12.30468723-26.3671875-26.3671875-26.3671875zM388.95312527 292.27343723h439.45312473c14.06250027 0 26.3671875-12.30468723 26.3671875-26.3671875s-12.30468723-26.3671875-26.3671875-26.3671875H388.95312527c-14.06250027 0-26.3671875 12.30468723-26.3671875 26.3671875s12.30468723 26.3671875 26.3671875 26.3671875zM828.40625 485.6328125H388.95312527c-14.06250027 0-26.3671875 12.30468723-26.3671875 26.3671875s12.30468723 26.3671875 26.3671875 26.3671875h439.45312473c14.06250027 0 26.3671875-12.30468723 26.3671875-26.3671875s-12.30468723-26.3671875-26.3671875-26.3671875z" p-id="3197"></path></svg>