<?xml version="1.0" standalone="no"?><!DOCTYPE svg PUBLIC "-//W3C//DTD SVG 1.1//EN" "http://www.w3.org/Graphics/SVG/1.1/DTD/svg11.dtd"><svg t="1621330512487" class="icon" viewBox="0 0 1024 1024" version="1.1" xmlns="http://www.w3.org/2000/svg" p-id="2241" xmlns:xlink="http://www.w3.org/1999/xlink" width="200" height="200"><defs><style type="text/css"></style></defs><path d="M682.928 402.992l11.312 11.328a16 16 0 0 1 0 22.624L484.96 646.24a16 16 0 0 1-22.624 0l-99.008-98.992a16 16 0 0 1 0-22.624l11.312-11.328a16 16 0 0 1 22.624 0l76.384 76.384 186.672-186.688a16 16 0 0 1 22.624 0zM512 800c159.056 0 288-128.944 288-288s-128.944-288-288-288-288 128.944-288 288 128.944 288 288 288z m0 48c-185.568 0-336-150.432-336-336s150.432-336 336-336 336 150.432 336 336-150.432 336-336 336z" p-id="2242"></path></svg>